HIERARCHY
ROOT Hips
{
	OFFSET 0.00000 0.00000 0.00000
	CHANNELS 6 Xposition Yposition Zposition Zrotation Yrotation Xrotation 
	JOINT LHipJoint
	{
		OFFSET 0 0 0
		CHANNELS 3 Zrotation Yrotation Xrotation
		JOINT LeftHip
		{
			OFFSET 1.46561 -1.72757 0.83774
			CHANNELS 3 Zrotation Yrotation Xrotation
			JOINT LeftKnee
			{
				OFFSET 2.48915 -6.83890 0.00000
				CHANNELS 3 Zrotation Yrotation Xrotation
				JOINT LeftAnkle
				{
					OFFSET 2.60555 -7.15868 0.00000
					CHANNELS 3 Zrotation Yrotation Xrotation
					JOINT LeftToe
					{
						OFFSET 0.19248 -0.52884 2.26738
						CHANNELS 3 Zrotation Yrotation Xrotation
						End Site
						{
							OFFSET 0.00000 -0.00000 1.17015
						}
					}
				}
			}
		}
	}
	JOINT RHipJoint
	{
		OFFSET 0 0 0
		CHANNELS 3 Zrotation Yrotation Xrotation
		JOINT RightHip
		{
			OFFSET -1.46918 -1.72757 0.83774
			CHANNELS 3 Zrotation Yrotation Xrotation
			JOINT RightKnee
			{
				OFFSET -2.49034 -6.84216 0.00000
				CHANNELS 3 Zrotation Yrotation Xrotation
				JOINT RightAnkle
				{
					OFFSET -2.65971 -7.30750 0.00000
					CHANNELS 3 Zrotation Yrotation Xrotation
					JOINT RightToe
					{
						OFFSET -0.19227 -0.52827 2.30785
						CHANNELS 3 Zrotation Yrotation Xrotation
						End Site
						{
							OFFSET -0.00000 -0.00000 1.18972
						}
					}
				}
			}
		}
	}
	JOINT lowerback
	{
		OFFSET 0 0 0
		CHANNELS 3 Zrotation Yrotation Xrotation
		JOINT Chest
		{
			OFFSET 0.02432 2.19909 -0.28000
			CHANNELS 3 Zrotation Yrotation Xrotation
			JOINT Chest2
			{
				OFFSET 0.03714 2.21816 -0.15261
				CHANNELS 3 Zrotation Yrotation Xrotation
				JOINT lowerneck
				{
					OFFSET 0 0 0
					CHANNELS 3 Zrotation Yrotation Xrotation
					JOINT Neck
					{
						OFFSET -0.01896 1.56165 0.21681
						CHANNELS 3 Zrotation Yrotation Xrotation
						JOINT Head
						{
							OFFSET 0.02744 1.56009 0.06764
							CHANNELS 3 Zrotation Yrotation Xrotation
							End Site
							{
								OFFSET 0.01212 1.60574 0.00298
							}
						}
					}
				}
				JOINT LeftCollar
				{
					OFFSET 0 0 0
					CHANNELS 3 Zrotation Yrotation Xrotation
					JOINT LeftShoulder
					{
						OFFSET 3.05595 1.48048 -0.60794
CHANNELS 3 Zrotation Xrotation Yrotation
						JOINT LeftElbow
						{
OFFSET 0 -5.206070 -0.000000
CHANNELS 3 Zrotation Xrotation Yrotation
							JOINT LeftWrist
							{
OFFSET 0 -3.399610 0.000000
CHANNELS 3 Zrotation Xrotation Yrotation
								JOINT lhand
								{
									OFFSET 0 0 0
CHANNELS 3 Zrotation Xrotation Yrotation
									JOINT LFingers
									{
OFFSET 0 -0.519690 0.000000
CHANNELS 3 Zrotation Xrotation Yrotation
										End Site
										{
OFFSET 0 -0.418990 0.000000
										}
									}
								}
								JOINT LThumb
								{
OFFSET 0 0.000000 0.000000
CHANNELS 3 Zrotation Xrotation Yrotation
									End Site
									{
OFFSET 0 -0.425390 0.425390
									}
								}
							}
						}
					}
				}
				JOINT RightCollar
				{
					OFFSET 0 0 0
					CHANNELS 3 Zrotation Yrotation Xrotation
					JOINT RightShoulder
					{
						OFFSET -2.99052 1.57608 -0.69102
CHANNELS 3 Zrotation Xrotation Yrotation
						JOINT RightElbow
						{
OFFSET 0 -5.322140 0.000000
CHANNELS 3 Zrotation Xrotation Yrotation
							JOINT RightWrist
							{
OFFSET 0 -3.512080 0.000000
CHANNELS 3 Zrotation Xrotation Yrotation
								JOINT rhand
								{
									OFFSET 0 0 0
CHANNELS 3 Zrotation Xrotation Yrotation
									JOINT RFingers
									{
OFFSET 0 -0.586680 0.000000
CHANNELS 3 Zrotation Xrotation Yrotation
										End Site
										{
OFFSET 0 -0.473000 0.000000
										}
									}
								}
								JOINT RThumb
								{
OFFSET 0 0.000000 0.000000
CHANNELS 3 Zrotation Xrotation Yrotation
									End Site
									{
OFFSET 0 -0.480220 0.480220
									}
								}
							}
						}
					}
				}
			}
		}
	}
}
MOTION
Frames: 9
Frame Time: 0.008333333333333333
0.518000 17.565300 -13.896200 -1.310300 0.112500 7.355600 0.000000 0.000000 0.000000 -18.906000 3.402300 -16.423300 1.078100 6.599900 18.535300 0.412700 -0.896000 -11.855100 0.001700 -0.262600 -0.721600 0.000000 0.000000 0.000000 20.243300 1.649400 -14.479900 -1.280800 -7.171900 20.225500 -0.597100 2.296300 -13.992200 -0.276200 -3.380200 9.339000 0.063200 -0.625200 -2.156200 1.845900 -0.911500 3.122500 1.816000 -0.485200 4.458500 -2.529600 0.278500 -14.658900 0.976900 0.805200 29.583700 0.922100 0.199300 12.153500 -0.000000 -0.000000 0.000000 3.556600 -7.575700 -25.848400 10.159600 -16.988900 1.521300 23.810100 -5.222800 2.822800 0.000000 0.000000 0.000000 -7.125000 0.000000 0.000000 -2.132800 26.893500 -0.938000 -0.000000 -0.000000 0.000000 -4.372600 -6.610700 8.962500 -12.979200 -21.256800 -2.445700 -20.204600 41.191700 24.668800 0.000000 0.000000 0.000000 7.125000 0.000000 -0.000000 10.062500 55.773800 -2.679600
0.518977 17.565691 -13.897567 -1.319969 0.124708 7.361167 0.000000 0.000000 0.000000 -18.896820 3.386088 -16.453868 1.080249 6.606150 18.553758 0.412016 -0.904594 -11.842306 0.001505 -0.251662 -0.691422 0.000000 0.000000 0.000000 20.253066 1.669226 -14.477947 -1.279335 -7.167993 20.214171 -0.596221 2.251473 -13.989172 -0.273661 -3.364769 9.296028 0.046402 -0.633892 -2.141746 1.863479 -0.922829 3.115371 1.843150 -0.491646 4.443851 -2.524619 0.273422 -14.653724 0.947015 0.805493 29.567390 0.909794 0.196272 12.146175 0.000000 0.000000 0.000000 3.543220 -7.582634 -25.816757 10.160479 -16.990170 1.521495 23.847993 -5.226511 2.880030 0.000000 0.000000 0.000000 -7.125000 0.000000 0.000000 -2.103599 26.830117 -0.928234 0.000000 0.000000 0.000000 -4.401996 -6.621248 8.973145 -12.973926 -21.248987 -2.443844 -20.177157 41.204006 24.698196 0.000000 0.000000 0.000000 7.125000 0.000000 0.000000 10.104397 55.798118 -2.696886
0.520907 17.565033 -13.898077 -1.326206 0.137774 7.370070 0.000000 0.000000 0.000000 -18.899269 3.392849 -16.458604 1.079156 6.602868 18.544095 0.411905 -0.921196 -11.836185 0.001500 -0.253211 -0.695848 0.000000 0.000000 0.000000 20.250154 1.668270 -14.511836 -1.284543 -7.182008 20.255748 -0.598011 2.269656 -14.007021 -0.278652 -3.395095 9.380698 0.058297 -0.632193 -2.142258 1.858180 -0.920622 3.107574 1.831122 -0.489989 4.435779 -2.523547 0.281117 -14.647690 0.959836 0.812173 29.570146 0.915506 0.201062 12.145714 0.000000 0.000000 0.000000 3.561679 -7.576794 -25.819622 10.174227 -17.011648 1.525504 23.819921 -5.199528 2.830020 0.000000 0.000000 0.000000 -7.125000 0.000000 0.000000 -2.125206 26.885414 -0.935054 0.000000 0.000000 0.000000 -4.398887 -6.617782 8.941752 -12.972179 -21.246512 -2.443228 -20.170971 41.228608 24.746467 0.000000 0.000000 0.000000 7.125000 0.000000 0.000000 10.132663 55.845791 -2.716365
0.522488 17.563140 -13.898100 -1.339611 0.130961 7.363805 0.000000 0.000000 0.000000 -18.895866 3.415052 -16.427742 1.077798 6.598980 18.532627 0.413016 -0.899218 -11.859333 0.002337 -0.312998 -0.860131 0.000000 0.000000 0.000000 20.256323 1.689959 -14.524938 -1.290379 -7.197764 20.302713 -0.599960 2.268833 -14.031426 -0.277412 -3.387859 9.360630 0.061690 -0.635541 -2.136442 1.861527 -0.925428 3.112593 1.832360 -0.492318 4.437818 -2.494395 0.280384 -14.642472 0.940693 0.808409 29.550493 0.902410 0.200277 12.137145 0.000000 0.000000 0.000000 3.569946 -7.585892 -25.791718 10.160952 -16.990941 1.521609 23.873363 -5.231862 2.970888 0.000000 0.000000 0.000000 -7.125000 0.000000 0.000000 -2.083990 26.730213 -0.924520 0.000000 0.000000 0.000000 -4.404744 -6.628480 8.969398 -12.977772 -21.254676 -2.445246 -20.160006 41.205809 24.732806 0.000000 0.000000 0.000000 7.125000 0.000000 0.000000 10.137906 55.829688 -2.713766
0.524050 17.561006 -13.898644 -1.348487 0.132304 7.365929 0.000000 0.000000 0.000000 -18.899135 3.437459 -16.404006 1.075343 6.591811 18.511494 0.413644 -0.886350 -11.871797 0.003397 -0.373885 -1.027241 0.000000 0.000000 0.000000 20.256800 1.710365 -14.560701 -1.298777 -7.220203 20.369465 -0.602548 2.271329 -14.062208 -0.277209 -3.386384 9.356443 0.061537 -0.638882 -2.130652 1.864429 -0.929970 3.109283 1.835310 -0.494585 4.431201 -2.482772 0.282929 -14.633307 0.935574 0.810004 29.539028 0.898499 0.201650 12.130698 0.000000 0.000000 0.000000 3.578749 -7.586509 -25.777543 10.151560 -16.976246 1.518852 23.918021 -5.267034 3.106255 0.000000 0.000000 0.000000 -7.125000 0.000000 0.000000 -2.049616 26.581236 -0.916357 0.000000 0.000000 0.000000 -4.411002 -6.630569 8.979759 -12.979922 -21.257838 -2.446035 -20.156843 41.206810 24.741572 0.000000 0.000000 0.000000 7.125000 0.000000 0.000000 10.145180 55.837909 -2.717761
0.525613 17.558592 -13.899230 -1.356100 0.134531 7.370086 0.000000 0.000000 0.000000 -18.905240 3.463180 -16.377425 1.072186 6.582357 18.483877 0.414142 -0.871688 -11.882968 0.004825 -0.445670 -1.224685 0.000000 0.000000 0.000000 20.255475 1.730404 -14.605013 -1.308431 -7.245980 20.446298 -0.605449 2.276987 -14.096286 -0.277112 -3.385682 9.354522 0.059910 -0.642644 -2.125243 1.867438 -0.934816 3.104043 1.839044 -0.497096 4.422905 -2.476678 0.286114 -14.625070 0.936348 0.812231 29.531730 0.898023 0.203478 12.126038 0.000000 0.000000 0.000000 3.587813 -7.584734 -25.773297 10.141427 -16.960417 1.515951 23.960352 -5.308375 3.243799 0.000000 0.000000 0.000000 -7.125000 0.000000 0.000000 -2.017256 26.429860 -0.909065 0.000000 0.000000 0.000000 -4.418047 -6.628316 8.993494 -12.982749 -21.261897 -2.446983 -20.159868 41.204892 24.745161 0.000000 0.000000 0.000000 7.125000 0.000000 0.000000 10.143604 55.842168 -2.718377
0.527262 17.556409 -13.899902 -1.362760 0.136777 7.374641 0.000000 0.000000 0.000000 -18.912104 3.485559 -16.354167 1.069307 6.573806 18.458748 0.414458 -0.856402 -11.891436 0.006376 -0.513638 -1.411368 0.000000 0.000000 0.000000 20.252893 1.747846 -14.647714 -1.317510 -7.270078 20.517933 -0.608207 2.283374 -14.127741 -0.277100 -3.385514 9.354042 0.055573 -0.646969 -2.120731 1.871841 -0.940473 3.099015 1.845776 -0.500065 4.415538 -2.475828 0.289767 -14.620489 0.939853 0.815939 29.528407 0.899634 0.205763 12.123609 0.000000 0.000000 0.000000 3.594660 -7.585532 -25.775995 10.130313 -16.943110 1.512677 23.999275 -5.355185 3.383848 0.000000 0.000000 0.000000 -7.125000 0.000000 0.000000 -1.987779 26.275685 -0.902955 0.000000 0.000000 0.000000 -4.428615 -6.625249 9.012997 -12.985765 -21.266355 -2.448132 -20.166920 41.201247 24.746016 0.000000 0.000000 0.000000 7.125000 0.000000 0.000000 10.136680 55.844491 -2.717110
0.529006 17.554762 -13.900585 -1.368635 0.139442 7.379398 0.000000 0.000000 0.000000 -18.918118 3.499908 -16.338020 1.067060 6.567163 18.439141 0.414416 -0.842658 -11.895527 0.007687 -0.566040 -1.555497 0.000000 0.000000 0.000000 20.250242 1.760253 -14.683910 -1.324655 -7.288973 20.574436 -0.610273 2.288482 -14.151688 -0.277184 -3.386420 9.356426 0.049798 -0.651447 -2.115333 1.877267 -0.946235 3.093365 1.854328 -0.503176 4.406972 -2.481738 0.293980 -14.619398 0.947677 0.821100 29.530676 0.904333 0.208358 12.124053 0.000000 0.000000 0.000000 3.600535 -7.586704 -25.791304 10.122427 -16.930898 1.510444 24.022699 -5.397129 3.481701 0.000000 0.000000 0.000000 -7.125000 0.000000 0.000000 -1.970134 26.168021 -0.899842 0.000000 0.000000 0.000000 -4.441240 -6.619614 9.033464 -12.988709 -21.270680 -2.449220 -20.176197 41.196518 24.742336 0.000000 0.000000 0.000000 7.125000 0.000000 0.000000 10.125312 55.842709 -2.713554
0.530763 17.553768 -13.901107 -1.374072 0.141201 7.382639 0.000000 0.000000 0.000000 -18.922677 3.506572 -16.328345 1.065643 6.562848 18.426569 0.414237 -0.830969 -11.895937 0.008632 -0.600091 -1.649152 0.000000 0.000000 0.000000 20.247930 1.767159 -14.709150 -1.329540 -7.301756 20.612444 -0.611576 2.292633 -14.167208 -0.277444 -3.387738 9.360152 0.044084 -0.655127 -2.109197 1.882672 -0.951021 3.088335 1.862955 -0.505814 4.398589 -2.491112 0.297627 -14.623365 0.957474 0.826146 29.538761 0.910485 0.210670 12.127859 0.000000 0.000000 0.000000 3.606622 -7.590071 -25.817046 10.117867 -16.923797 1.509124 24.027745 -5.429773 3.536250 0.000000 0.000000 0.000000 -7.125000 0.000000 0.000000 -1.966443 26.108291 -0.900945 0.000000 0.000000 0.000000 -4.454701 -6.613315 9.053973 -12.991476 -21.274733 -2.450213 -20.182759 41.191635 24.742576 0.000000 0.000000 0.000000 7.125000 0.000000 0.000000 10.118503 55.844170 -2.712087
